<svg width="164" height="146" viewBox="0 0 164 146" fill="none" xmlns="http://www.w3.org/2000/svg">
<g clip-path="url(#clip0_0_651)">
<path d="M100.036 62.3959C100.036 62.3959 91.9924 78.1712 83.8144 89.0697C80.5617 93.4028 77.2922 96.9615 74.4934 98.4525C71.7618 99.9023 69.442 102.159 67.5257 104.664C62.5668 111.139 60.2722 119.253 60.2722 119.253L39.3691 88.2624C39.3691 88.2624 40.0836 57.964 42.5882 52.8978C46.2444 45.5086 48.0094 30.5901 49.4214 27.6162C50.4637 25.4085 53.439 14.0322 53.7248 13.192C53.8508 12.8295 54.8426 12.2776 56.1286 12.2776C57.1624 12.2776 58.9106 13.2579 59.3561 15.2679C61.5918 25.425 58.9022 32.1223 58.9274 32.4271C59.7175 40.2364 57.3473 46.0276 59.0115 47.5598C59.0703 47.6175 59.188 47.5927 59.3477 47.4857C62.2306 45.6734 80.1163 20.1199 82.3183 19.568C84.6549 18.9749 100.036 62.3959 100.036 62.3959Z" fill="#FFDB7D"/>
<path d="M66.5687 113.107C66.5687 113.107 66.283 126.881 65.4677 145.432H12.752C24.7962 120.25 35.2772 99.0457 35.2772 99.0457C35.2772 99.0457 65.2996 99.9436 66.5687 113.107Z" fill="#D2E3FC"/>
<path d="M118.431 8.74076L111.959 18.0412L105.605 27.1686C105.218 27.6299 104.773 27.7864 104.285 27.737C102.764 27.5969 100.873 25.4386 99.4018 24.2442L99.2505 24.1206C97.3089 22.5472 97.04 19.7134 98.6453 17.8105L108.353 6.31062L111.236 2.9002C112.841 0.997284 115.733 0.733678 117.674 2.30709L117.825 2.43065C119.767 3.99582 120.036 6.83784 118.431 8.74076Z" fill="#FDCD51"/>
<path d="M111.838 18.2994L105.484 27.4269C105.097 27.8882 104.652 28.0447 104.164 27.9953L108.232 6.57715C108.249 6.69248 108.938 16.3059 111.838 18.2994Z" fill="#FDCD51"/>
<path d="M83.8154 89.0697C80.5627 93.4027 77.2932 96.9614 74.4944 98.4524C71.7628 99.9023 69.443 102.159 67.5267 104.664C65.3246 103.659 62.8115 102.472 60.3573 101.311C57.3651 99.8858 57.2559 95.7258 60.1808 94.1853C60.206 94.1688 60.2396 94.1523 60.2648 94.1359C63.0048 92.5954 65.8205 87.1667 65.8205 87.1667L83.8154 89.0697Z" fill="#FDCD51"/>
<path d="M53.5923 13.6533L51.8945 20.3588C51.8945 20.3588 53.3738 20.952 54.3236 20.4906C55.2733 20.0293 56.0634 14.0158 53.5923 13.6533Z" fill="#FCE29E"/>
<path d="M102.298 92.2329H65.8791C62.2986 92.2329 59.3652 89.3579 59.3652 85.8487V7.39254C59.3652 3.88327 62.2986 1.0083 65.8791 1.0083H102.298C105.878 1.0083 108.811 3.88327 108.811 7.39254V85.8487C108.811 89.3579 105.878 92.2329 102.298 92.2329Z" fill="#2B478B"/>
<path d="M106.365 7.99384V84.6295C106.365 87.2326 104.213 89.3579 101.574 89.3579H66.6014C63.9706 89.3579 61.8105 87.2326 61.8105 84.6295V7.99384C61.8105 5.39072 63.9622 3.26538 66.6014 3.26538H101.574C104.205 3.26538 106.365 5.39895 106.365 7.99384Z" fill="#C0D8FB"/>
<path d="M101.574 3.26538L67.0378 89.3661H66.6092C63.9784 89.3661 61.8184 87.2408 61.8184 84.6377V7.99384C61.8184 5.39071 63.97 3.26538 66.6092 3.26538H101.574Z" fill="#CBE1FD"/>
<path d="M91.3979 6.11583H76.7818C75.5883 6.11583 74.6133 5.16025 74.6133 3.99049V3.66098C74.6133 2.49122 75.5883 1.53564 76.7818 1.53564H91.3979C92.5914 1.53564 93.5664 2.49122 93.5664 3.66098V3.99049C93.5664 5.16849 92.5914 6.11583 91.3979 6.11583Z" fill="#2B478B"/>
<path d="M115.091 44.1164L114.125 44.4788L107.636 46.8925C107.485 46.9501 107.334 46.9996 107.174 47.0325C105.022 47.5762 102.736 46.4559 101.929 44.38L101.837 44.1328C100.971 41.9087 102.123 39.3879 104.4 38.5394L110.452 36.2823L110.889 36.1175L111.855 35.7551C114.125 34.9066 116.697 36.0352 117.554 38.2676L117.646 38.5147C118.521 40.7554 117.369 43.2761 115.091 44.1164Z" fill="#FDCD51"/>
<path d="M109.822 44.2646C108.738 44.6683 106.78 45.385 105.729 45.525C105.435 45.5662 104.888 45.4097 104.376 44.8578C104.073 44.5283 103.779 44.0587 103.56 43.4162C103.46 43.1114 103.376 42.8066 103.342 42.4935C103.3 42.1311 103.308 41.7604 103.376 41.3979C103.434 41.0684 103.661 40.7718 103.998 40.6153C103.998 40.6153 103.998 40.6153 104.006 40.6153C105.124 40.0964 106.628 39.4538 107.939 39.0996C108.847 38.8525 109.772 39.2479 110.057 40.0305L110.192 40.3929L110.89 42.2629C111.175 43.0455 110.705 43.9351 109.822 44.2646Z" fill="#FCE29E"/>
<path d="M109.82 44.2646C108.736 44.6683 106.778 45.3849 105.727 45.525C105.433 45.5662 104.887 45.4097 104.374 44.8577C104.323 44.7342 104.273 44.6024 104.223 44.4623C104.122 44.1575 104.038 43.8527 104.004 43.5397C103.962 43.1772 103.97 42.8065 104.038 42.4441C104.097 42.1146 104.323 41.818 104.66 41.6615C104.66 41.6615 104.66 41.6615 104.668 41.6615C105.786 41.1425 107.29 40.5 108.602 40.1457C109.182 39.9892 109.77 40.0963 110.199 40.3929L110.896 42.2628C111.173 43.0454 110.703 43.9351 109.82 44.2646Z" fill="#FDCD51"/>
<path d="M112.149 53.0624L107.14 54.3969C105.619 54.8006 104.039 53.9191 103.618 52.4281L103.467 51.8762C103.055 50.3852 103.955 48.8365 105.476 48.4246L110.485 47.0901C112.006 46.6864 113.587 47.5679 114.007 49.0589L114.158 49.6108C114.57 51.1018 113.671 52.6588 112.149 53.0624Z" fill="#FDCD51"/>
<path d="M109.442 52.8236C108.526 53.0625 106.862 53.4908 105.988 53.532C105.668 53.5485 105.038 53.2849 104.626 52.4693C104.525 52.2716 104.441 52.041 104.374 51.7774C104.315 51.5385 104.265 51.2996 104.265 51.0525C104.256 50.7641 104.298 50.4841 104.374 50.2122C104.45 49.9651 104.66 49.7509 104.937 49.652C104.937 49.652 104.937 49.652 104.946 49.652C105.895 49.3225 107.181 48.9271 108.291 48.7376C109.056 48.6058 109.778 48.9683 109.963 49.5861L110.089 50.031L110.476 51.3573C110.644 51.9751 110.19 52.6259 109.442 52.8236Z" fill="#FDCD51"/>
<path d="M109.441 52.8232C108.525 53.0621 106.861 53.4905 105.987 53.5317C105.668 53.5481 105.037 53.2845 104.625 52.469C104.567 52.2466 104.533 52.0241 104.524 51.7935C104.516 51.5134 104.558 51.2251 104.634 50.9532C104.709 50.7061 104.92 50.4919 105.197 50.3931C105.197 50.3931 105.197 50.3931 105.205 50.3931C106.155 50.0636 107.441 49.6682 108.55 49.4787C109.181 49.3716 109.794 49.6023 110.08 50.0306L110.467 51.3569C110.643 51.9747 110.189 52.6255 109.441 52.8232Z" fill="#FCE29E"/>
<path d="M30.1426 109.491C30.1426 109.491 40.447 119.162 47.3895 122.894L52.651 119.236V124.632C52.651 124.632 62.9974 126.428 66.2586 124.632V109.928L37.2111 95.6599L30.1426 109.491Z" fill="#C1DAFF"/>
<path d="M68.4525 123.471C64.4517 124.278 55.8282 121.197 55.8282 121.197L57.2235 108.025L47.4737 118.965C42.5148 117.152 34.7571 112.432 30.1512 109.499C27.8566 108.033 26.3438 107.012 26.3438 107.012C32.8492 96.7557 39.3882 87.1587 39.3882 87.1587C41.3045 90.9233 45.8516 94.1937 50.7769 96.8051C58.9633 101.155 68.2087 103.692 68.2087 103.692C68.2003 111.518 68.4525 123.471 68.4525 123.471Z" fill="#DCEAFF"/>
<path d="M114.945 34.7569C114.911 34.7734 114.878 34.7816 114.836 34.7898L108.272 36.4374C105.389 37.1623 102.405 35.6301 101.64 33.0352L101.253 31.7089C100.522 29.2129 102.094 26.6098 104.775 25.7613L106.944 25.2176L111.339 24.1137C114.222 23.3888 117.206 24.921 117.971 27.5159L118.357 28.8422C119.08 31.3053 117.559 33.8755 114.945 34.7569Z" fill="#FDCD51"/>
<path d="M111.944 32.9612L108.759 34.3698C108.75 34.3698 108.75 34.3698 108.742 34.3781C108.616 34.411 108.481 34.4357 108.355 34.4522C108.305 34.4604 108.246 34.4687 108.195 34.4687C108.17 34.4687 108.153 34.4687 108.128 34.4687C107.775 34.4604 107.54 34.0897 107.691 33.7685C107.994 33.1259 108.078 32.3845 107.868 31.6514L107.792 31.3795V31.3713L107.548 30.4816C107.355 29.7732 106.935 29.1801 106.388 28.7517C106.321 28.7023 106.254 28.6528 106.187 28.6034C105.556 28.1751 105.716 27.203 106.456 27.0053C106.464 27.0053 106.472 27.0053 106.472 26.9971L109.969 26.4781C110.835 26.2474 111.667 26.8982 111.902 27.7467L112.179 28.7599L112.776 30.9182C113.011 31.7749 112.801 32.7305 111.944 32.9612Z" fill="#FDCD51"/>
<path d="M111.944 32.961L108.759 34.3697C108.75 34.3697 108.75 34.3697 108.742 34.3779C108.666 34.3944 108.431 34.4274 108.128 34.4768C107.775 34.4685 107.54 34.0978 107.691 33.7766C107.994 33.134 108.078 32.3926 107.868 31.6595L107.792 31.3876V31.3794L107.549 30.4897C107.355 29.7813 106.935 29.1882 106.389 28.7598C106.498 28.595 106.666 28.4715 106.893 28.4138C106.901 28.4138 106.91 28.4138 106.91 28.4056L110.406 27.8866C111.137 27.6889 111.843 28.1255 112.188 28.768L112.785 30.9263C113.012 31.7748 112.802 32.7304 111.944 32.961Z" fill="#FCE29E"/>
<path d="M59.3663 68.1707C59.3663 68.1707 57.9375 55.9212 56.6179 53.5322C55.2983 51.1433 54.1805 46.3572 56.2145 42.8067C58.2401 39.2563 58.9461 32.4189 58.9461 32.4189C59.7361 40.2283 57.3659 46.0194 59.0301 47.5517C59.089 47.6093 59.2066 47.5846 59.3663 47.4775V68.1707Z" fill="#FDCD51"/>
<path d="M41.6227 48.2187H91.3463C93.0693 48.2187 94.4729 46.8513 94.4729 45.1543V25.6391C94.4729 23.9504 93.0777 22.5747 91.3463 22.5747H41.6227C39.8997 22.5747 38.4961 23.9422 38.4961 25.6391V45.1543C38.4961 46.8513 39.8997 48.2187 41.6227 48.2187Z" fill="#598BE0"/>
<path d="M91.6905 19.3291H72.2331C70.7874 19.3291 69.6191 18.1841 69.6191 16.7672V13.1508C69.6191 11.7339 70.7874 10.5889 72.2331 10.5889H91.6905C93.1361 10.5889 94.3044 11.7339 94.3044 13.1508V16.7672C94.3044 18.1841 93.1361 19.3291 91.6905 19.3291Z" fill="#9ABFF6"/>
<path d="M90.8412 83.4268H68.4001C66.6687 83.4268 65.2734 82.0511 65.2734 80.3624V75.7163C65.2734 74.0193 66.6771 72.6519 68.4001 72.6519H90.8328C92.5643 72.6519 93.9595 74.0276 93.9595 75.7163V80.3624C93.9679 82.0511 92.5643 83.4268 90.8412 83.4268Z" fill="#9ABFF6"/>
<path d="M99.5594 68.1706H78.3621C76.2945 68.1706 74.6135 66.523 74.6135 64.4966V56.3659C74.6135 54.3394 76.2945 52.6919 78.3621 52.6919H99.5594C101.627 52.6919 103.308 54.3394 103.308 56.3659V64.4966C103.316 66.523 101.635 68.1706 99.5594 68.1706Z" fill="#FDCD51"/>
<path d="M159.486 145.44H120.815C118.957 144.221 109.333 137.788 105.35 132.985C104.509 131.972 101.416 123.199 99.0458 116.089C97.5666 111.641 96.3563 107.843 96.1545 106.97C96.0873 106.665 96.0369 106.064 96.0117 105.249V105.24C95.9108 102.332 96.0453 96.7143 96.1882 92.2577V92.2329V92.1753C96.1966 91.9776 96.205 91.7881 96.205 91.5986V91.5904C96.205 91.5739 96.205 91.5492 96.205 91.5327C96.2302 90.7584 96.2554 90.0252 96.2806 89.3662C96.3395 87.7104 96.3899 86.4583 96.4151 85.9723L96.4235 85.7416C96.4823 85.7087 98.3482 84.7366 100.828 86.4912C101.424 86.9196 101.979 87.9411 102.492 89.2756C102.82 90.1323 103.122 91.1126 103.4 92.1423C104.484 96.1129 105.265 100.866 105.677 102.135C106.35 104.194 114.25 113.231 114.746 113.791C114.755 113.799 114.763 113.808 114.771 113.816V99.5398L108.804 83.8881L106.35 77.4627L105.123 74.2335C105.123 74.2335 103.231 71.1938 101.651 67.5362C100.954 65.9381 100.323 64.2164 99.9284 62.5853C99.8359 62.1982 99.7519 61.811 99.693 61.4321C99.4577 60.0481 99.4409 58.7713 99.7687 57.7333C100.349 55.8798 101.643 55.5256 102.643 55.5668C102.744 55.5668 102.845 55.575 102.946 55.5915C103.047 55.5997 103.139 55.6245 103.231 55.6492C103.408 55.6986 103.576 55.7645 103.727 55.8551C103.98 56.0034 104.206 56.2011 104.375 56.4482C104.375 56.4482 105.215 57.5274 106.35 58.9772C107.098 59.9328 107.963 61.0449 108.804 62.124C110.292 64.0434 111.67 65.831 112.057 66.35C114.107 69.1838 119.638 78.4183 119.638 78.4183L126.11 78.6819C127.135 78.7231 128.11 79.1267 128.858 79.8104C131.161 81.9193 136.12 86.4748 136.734 87.1503C136.734 87.3727 140.591 89.1932 143.567 90.8078C145.693 91.6893 149.744 94.8196 149.744 94.8196C150.585 95.5445 151.224 96.2694 151.543 96.9614C152.93 99.9187 156.695 125.662 158.494 138.389C159.082 142.483 159.46 145.226 159.486 145.44Z" fill="#FFDB7D"/>
<path d="M119.646 78.4182C119.646 78.4182 125.639 88.0069 126.438 88.4435C127.228 88.8719 130.321 89.4815 130.674 88.4435C131.018 87.4056 119.646 78.4182 119.646 78.4182Z" fill="#FDCD51"/>
<path d="M149.777 94.8527C149.769 94.8444 149.761 94.8362 149.744 94.8279C149.744 94.8279 145.693 91.6976 143.566 90.8162C140.835 89.3334 137.355 87.6776 136.809 87.241C137.447 87.9494 141.91 92.9085 143.625 93.2792C145.138 93.6088 148.567 94.5231 149.777 94.8527Z" fill="#FDCD51"/>
<path d="M114.779 113.816V99.5398C114.779 99.5398 118.242 105.216 118.503 108.321C118.772 111.435 117.065 116.477 114.779 113.816Z" fill="#FDCD51"/>
<path d="M102.232 61.4403C101.727 60.5918 100.82 59.0514 100.509 58.1864C100.425 57.9393 100.433 57.4533 100.736 56.9343C100.921 56.6213 101.206 56.3 101.643 56.0117C101.845 55.8799 102.055 55.7563 102.282 55.6739C102.543 55.5833 102.82 55.5339 103.097 55.5256C103.35 55.5256 103.61 55.6657 103.795 55.921C104.392 56.7778 105.157 57.9475 105.669 59.002C106.031 59.7351 105.913 60.5754 105.392 60.9461L105.148 61.1191L103.904 62.0087C103.383 62.3877 102.644 62.1323 102.232 61.4403Z" fill="#FFD3B6"/>
<path d="M102.232 61.4403C101.727 60.5918 100.82 59.0514 100.509 58.1864C100.425 57.9393 100.433 57.4533 100.736 56.9343C100.82 56.8684 100.904 56.8025 100.996 56.7448C101.198 56.613 101.408 56.4894 101.635 56.4071C101.895 56.3165 102.173 56.267 102.45 56.2588C102.702 56.2588 102.963 56.3988 103.148 56.6542C103.745 57.5109 104.509 58.6807 105.022 59.7351C105.249 60.2047 105.291 60.7154 105.148 61.1191L103.904 62.0087C103.383 62.3877 102.644 62.1323 102.232 61.4403Z" fill="#FCE29E"/>
<path d="M60.0139 34.437C60.0139 36.2658 59.3835 37.9463 58.3329 39.2891C57.9799 39.7339 57.5849 40.1458 57.1478 40.5082C55.7358 41.6862 53.9035 42.3947 51.9031 42.3947C50.0877 42.3947 48.4151 41.8098 47.0619 40.8213C46.4651 40.3847 45.9356 39.8739 45.4818 39.2973C44.4227 37.9545 43.8008 36.274 43.8008 34.4453C43.8008 30.0546 47.4317 26.4958 51.9115 26.4958C56.3914 26.4958 60.0139 30.0463 60.0139 34.437Z" fill="white"/>
<path d="M55.1545 38.1935C55.1293 38.1688 55.1125 38.144 55.0873 38.1276C54.9948 38.0534 54.9024 38.0122 54.5241 37.9546C54.3308 37.9216 54.0703 37.8887 53.6921 37.8393C53.6921 37.8393 53.608 37.831 53.566 37.831C53.5408 37.831 53.5071 37.8228 53.4735 37.8228C53.3643 37.7651 53.3391 37.3285 53.3391 36.8672C53.3391 36.8342 53.3391 36.8013 53.3391 36.7601C53.3391 36.5871 53.3475 36.4141 53.3559 36.2576C53.3559 36.2494 53.3559 36.2411 53.3559 36.2329C53.5912 36.2494 53.7425 36.2494 53.7425 36.2494C54.1711 36.2164 54.4401 35.0796 54.541 34.1652C54.541 34.1652 54.7511 33.6627 54.7511 33.119C54.7511 32.8142 54.6838 32.493 54.4737 32.2458C54.3645 32.114 54.2636 32.0317 54.1711 31.9822C54.1459 31.9575 54.1207 31.9328 54.0871 31.9081C53.6837 31.4715 52.0531 29.8322 50.9773 30.7795C50.952 30.6889 50.599 29.618 48.9096 29.9722C49.0189 29.964 49.7669 29.8898 49.9855 30.1864C49.9519 30.1699 49.3047 29.8898 48.8844 30.137C48.6911 30.2523 48.5734 30.4912 48.5062 30.7383C48.5062 30.7383 48.5062 30.7383 48.5062 30.7466C48.5062 30.7466 48.5062 30.7466 48.5062 30.7548V30.763C48.4978 30.796 48.4894 30.8289 48.481 30.8619C48.481 30.8701 48.481 30.8701 48.481 30.8784C48.481 30.8784 48.481 30.8784 48.481 30.8866C48.4306 31.142 48.4306 31.3891 48.4642 31.5127C48.5314 31.768 48.9937 32.5424 49.3047 32.5424C49.4223 32.5424 49.5484 32.5012 49.6577 32.46C49.6073 32.6001 49.5652 32.7483 49.5316 32.9131C49.2038 34.4288 50.2292 35.5821 50.7587 35.2938C51.1033 35.1126 51.3555 35.6974 51.3555 35.6974C51.3051 36.8095 50.9941 37.5262 50.7671 37.7074C50.6831 37.7157 50.5066 37.7404 50.2797 37.7734C50.2797 37.7734 49.498 37.8557 48.9012 38.1111C48.8928 38.1111 48.8928 38.1111 48.8844 38.1193C48.75 38.177 48.6323 38.2347 48.5482 38.3006C48.5062 38.3335 48.4642 38.3747 48.439 38.4159C48.4222 38.4324 48.4138 38.4488 48.4053 38.4653C48.2036 38.836 48.0019 39.3962 47.8086 40.0552C48.9517 40.8955 50.3805 41.3897 51.9186 41.3897C53.6164 41.3897 55.1629 40.7884 56.3648 39.7916C55.9362 38.8607 55.4319 38.3912 55.1545 38.1935Z" fill="#2B478B"/>
<path d="M74.7806 30.4252H65.5604C65.241 30.4252 64.9805 30.1699 64.9805 29.8568V29.585C64.9805 29.272 65.241 29.0166 65.5604 29.0166H74.7806C75.1 29.0166 75.3606 29.272 75.3606 29.585V29.8568C75.3606 30.1699 75.1 30.4252 74.7806 30.4252Z" fill="white"/>
<path d="M74.8896 35.4998H65.4509C65.1903 35.4998 64.9802 35.2938 64.9802 35.0385C64.9802 34.7831 65.1903 34.5771 65.4509 34.5771H74.8896C75.1502 34.5771 75.3603 34.7831 75.3603 35.0385C75.3603 35.2938 75.1502 35.4998 74.8896 35.4998Z" fill="white"/>
<path d="M70.7124 37.6746H65.3416C65.1399 37.6746 64.9802 37.5181 64.9802 37.3204V37.1062C64.9802 36.9085 65.1399 36.752 65.3416 36.752H70.7124C70.9141 36.752 71.0738 36.9085 71.0738 37.1062V37.3204C71.0738 37.5098 70.9057 37.6746 70.7124 37.6746Z" fill="white"/>
<path d="M81.6568 37.6743H72.9829C72.7392 37.6743 72.5291 37.4766 72.5291 37.2295V37.1966C72.5291 36.9577 72.7308 36.7517 72.9829 36.7517H81.6568C81.9006 36.7517 82.1107 36.9494 82.1107 37.1966V37.2295C82.1023 37.4766 81.9006 37.6743 81.6568 37.6743Z" fill="white"/>
<path d="M89.7585 35.4998H77.3864C77.1259 35.4998 76.9158 35.2938 76.9158 35.0385C76.9158 34.7831 77.1259 34.5771 77.3864 34.5771H89.7585C90.019 34.5771 90.2292 34.7831 90.2292 35.0385C90.2292 35.2938 90.019 35.4998 89.7585 35.4998Z" fill="white"/>
<path d="M74.8896 39.8491H65.4509C65.1903 39.8491 64.9802 39.6432 64.9802 39.3878C64.9802 39.1325 65.1903 38.9265 65.4509 38.9265H74.8896C75.1502 38.9265 75.3603 39.1325 75.3603 39.3878C75.3603 39.6432 75.1502 39.8491 74.8896 39.8491Z" fill="white"/>
<path d="M89.7585 39.8491H77.3864C77.1259 39.8491 76.9158 39.6432 76.9158 39.3878C76.9158 39.1325 77.1259 38.9265 77.3864 38.9265H89.7585C90.019 38.9265 90.2292 39.1325 90.2292 39.3878C90.2292 39.6432 90.019 39.8491 89.7585 39.8491Z" fill="white"/>
<path d="M83.757 30.4252H77.1424C76.865 30.4252 76.6465 30.2028 76.6465 29.9392V29.5026C76.6465 29.2308 76.8734 29.0166 77.1424 29.0166H83.757C84.0344 29.0166 84.2529 29.239 84.2529 29.5026V29.9392C84.2529 30.2111 84.026 30.4252 83.757 30.4252Z" fill="white"/>
<path d="M75.4124 75.7087H68.865C68.638 75.7087 68.4531 75.5275 68.4531 75.305V75.1156C68.4531 74.8932 68.638 74.7119 68.865 74.7119H75.4124C75.6393 74.7119 75.8243 74.8932 75.8243 75.1156V75.305C75.8327 75.5275 75.6393 75.7087 75.4124 75.7087Z" fill="#699DEE"/>
<path d="M75.4965 78.2699H68.7893C68.6044 78.2699 68.4531 78.1216 68.4531 77.9404C68.4531 77.7591 68.6044 77.6108 68.7893 77.6108H75.4965C75.6814 77.6108 75.8327 77.7591 75.8327 77.9404C75.8242 78.1216 75.6814 78.2699 75.4965 78.2699Z" fill="#699DEE"/>
<path d="M72.5211 79.8185H68.7053C68.5624 79.8185 68.4531 79.7032 68.4531 79.5714V79.4149C68.4531 79.2748 68.5708 79.1677 68.7053 79.1677H72.5211C72.664 79.1677 72.7733 79.2831 72.7733 79.4149V79.5714C72.7817 79.7032 72.664 79.8185 72.5211 79.8185Z" fill="#699DEE"/>
<path d="M80.305 79.8188H74.1358C73.9593 79.8188 73.8164 79.6787 73.8164 79.5057V79.481C73.8164 79.308 73.9593 79.168 74.1358 79.168H80.305C80.4815 79.168 80.6244 79.308 80.6244 79.481V79.5057C80.6244 79.6787 80.4815 79.8188 80.305 79.8188Z" fill="#699DEE"/>
<path d="M86.0698 78.2699H77.2698C77.0849 78.2699 76.9336 78.1216 76.9336 77.9404C76.9336 77.7591 77.0849 77.6108 77.2698 77.6108H86.0698C86.2547 77.6108 86.406 77.7591 86.406 77.9404C86.3976 78.1216 86.2463 78.2699 86.0698 78.2699Z" fill="#699DEE"/>
<path d="M75.4965 81.3673H68.7893C68.6044 81.3673 68.4531 81.219 68.4531 81.0378C68.4531 80.8565 68.6044 80.7083 68.7893 80.7083H75.4965C75.6814 80.7083 75.8327 80.8565 75.8327 81.0378C75.8242 81.219 75.6814 81.3673 75.4965 81.3673Z" fill="#699DEE"/>
<path d="M86.0698 81.3673H77.2698C77.0849 81.3673 76.9336 81.219 76.9336 81.0378C76.9336 80.8565 77.0849 80.7083 77.2698 80.7083H86.0698C86.2547 80.7083 86.406 80.8565 86.406 81.0378C86.3976 81.219 86.2463 81.3673 86.0698 81.3673Z" fill="#699DEE"/>
<path d="M81.8 75.7081H77.0932C76.8999 75.7081 76.7402 75.5516 76.7402 75.3622V75.0491C76.7402 74.8596 76.8999 74.7031 77.0932 74.7031H81.8C81.9933 74.7031 82.153 74.8596 82.153 75.0491V75.3622C82.153 75.5516 81.9933 75.7081 81.8 75.7081Z" fill="#699DEE"/>
<path d="M79.7562 13.2746H73.2087C72.9818 13.2746 72.7969 13.0934 72.7969 12.8709V12.6815C72.7969 12.4591 72.9818 12.2778 73.2087 12.2778H79.7562C79.9831 12.2778 80.168 12.4591 80.168 12.6815V12.8709C80.168 13.0934 79.9831 13.2746 79.7562 13.2746Z" fill="#699DEE"/>
<path d="M79.8402 15.8446H73.1331C72.9482 15.8446 72.7969 15.6963 72.7969 15.5151C72.7969 15.3338 72.9482 15.1855 73.1331 15.1855H79.8402C80.0251 15.1855 80.1764 15.3338 80.1764 15.5151C80.168 15.6963 80.0251 15.8446 79.8402 15.8446Z" fill="#699DEE"/>
<path d="M76.8649 17.3932H73.049C72.9061 17.3932 72.7969 17.2779 72.7969 17.1461V16.9896C72.7969 16.8495 72.9145 16.7424 73.049 16.7424H76.8649C77.0077 16.7424 77.117 16.8578 77.117 16.9896V17.1461C77.1254 17.2779 77.0077 17.3932 76.8649 17.3932Z" fill="#699DEE"/>
<path d="M84.6488 17.3935H78.4795C78.303 17.3935 78.1602 17.2534 78.1602 17.0804V17.0557C78.1602 16.8827 78.303 16.7427 78.4795 16.7427H84.6488C84.8253 16.7427 84.9681 16.8827 84.9681 17.0557V17.0804C84.9681 17.2534 84.8253 17.3935 84.6488 17.3935Z" fill="#699DEE"/>
<path d="M90.4134 15.8446H81.6134C81.4285 15.8446 81.2772 15.6963 81.2772 15.5151C81.2772 15.3338 81.4285 15.1855 81.6134 15.1855H90.4134C90.5983 15.1855 90.7496 15.3338 90.7496 15.5151C90.7412 15.6963 90.5899 15.8446 90.4134 15.8446Z" fill="#699DEE"/>
<path d="M86.1437 13.2745H81.437C81.2437 13.2745 81.084 13.118 81.084 12.9286V12.6155C81.084 12.426 81.2437 12.2695 81.437 12.2695H86.1437C86.3371 12.2695 86.4968 12.426 86.4968 12.6155V12.9286C86.4968 13.1263 86.3371 13.2745 86.1437 13.2745Z" fill="#699DEE"/>
<path d="M85.549 56.6295H78.3796C78.1275 56.6295 77.9258 56.4318 77.9258 56.1847V55.9705C77.9258 55.7233 78.1275 55.5256 78.3796 55.5256H85.549C85.8012 55.5256 86.0029 55.7233 86.0029 55.9705V56.1847C86.0029 56.4235 85.8012 56.6295 85.549 56.6295Z" fill="white"/>
<path d="M85.6331 59.4384H78.2872C78.0855 59.4384 77.9258 59.2737 77.9258 59.0842C77.9258 58.8865 78.0939 58.73 78.2872 58.73H85.6331C85.8348 58.73 85.9945 58.8947 85.9945 59.0842C86.0029 59.2737 85.8348 59.4384 85.6331 59.4384Z" fill="white"/>
<path d="M82.3882 61.1271H78.211C78.0597 61.1271 77.9336 61.0036 77.9336 60.8553V60.6905C77.9336 60.5423 78.0597 60.4187 78.211 60.4187H82.3882C82.5395 60.4187 82.6656 60.5423 82.6656 60.6905V60.8553C82.6656 61.0036 82.5395 61.1271 82.3882 61.1271Z" fill="white"/>
<path d="M90.903 61.1271H84.1538C83.9605 61.1271 83.8008 60.9706 83.8008 60.7811V60.7564C83.8008 60.5669 83.9605 60.4104 84.1538 60.4104H90.903C91.0963 60.4104 91.256 60.5669 91.256 60.7564V60.7811C91.256 60.9706 91.0963 61.1271 90.903 61.1271Z" fill="white"/>
<path d="M97.2141 59.4384H87.5821C87.3804 59.4384 87.2207 59.2737 87.2207 59.0842C87.2207 58.8865 87.3888 58.73 87.5821 58.73H97.2141C97.4159 58.73 97.5755 58.8947 97.5755 59.0842C97.5755 59.2737 97.4075 59.4384 97.2141 59.4384Z" fill="white"/>
<path d="M85.6331 62.8242H78.2872C78.0855 62.8242 77.9258 62.6594 77.9258 62.4699C77.9258 62.2722 78.0939 62.1157 78.2872 62.1157H85.6331C85.8348 62.1157 85.9945 62.2805 85.9945 62.4699C86.0029 62.6594 85.8348 62.8242 85.6331 62.8242Z" fill="white"/>
<path d="M97.2141 62.8242H87.5821C87.3804 62.8242 87.2207 62.6594 87.2207 62.4699C87.2207 62.2722 87.3888 62.1157 87.5821 62.1157H97.2141C97.4159 62.1157 97.5755 62.2805 97.5755 62.4699C97.5755 62.6594 97.4075 62.8242 97.2141 62.8242Z" fill="white"/>
<path d="M85.6331 64.5871H78.2872C78.0855 64.5871 77.9258 64.4223 77.9258 64.2329C77.9258 64.0352 78.0939 63.8787 78.2872 63.8787H85.6331C85.8348 63.8787 85.9945 64.0434 85.9945 64.2329C86.0029 64.4223 85.8348 64.5871 85.6331 64.5871Z" fill="white"/>
<path d="M97.2141 64.5871H87.5821C87.3804 64.5871 87.2207 64.4223 87.2207 64.2329C87.2207 64.0352 87.3888 63.8787 87.5821 63.8787H97.2141C97.4159 63.8787 97.5755 64.0434 97.5755 64.2329C97.5755 64.4223 97.4075 64.5871 97.2141 64.5871Z" fill="white"/>
<path d="M92.5428 56.6293H87.3905C87.1804 56.6293 87.0039 56.4563 87.0039 56.2504V55.9126C87.0039 55.7067 87.1804 55.5337 87.3905 55.5337H92.5428C92.7529 55.5337 92.9294 55.7067 92.9294 55.9126V56.2504C92.9294 56.4563 92.7529 56.6293 92.5428 56.6293Z" fill="white"/>
<path d="M65.2656 59.8013C65.2656 60.518 65.5094 61.177 65.9296 61.7042C66.0641 61.8772 66.2238 62.0419 66.3919 62.182C66.56 62.322 66.7449 62.4456 66.9466 62.5527C67.3921 62.7916 67.9048 62.9234 68.4511 62.9234C69.1319 62.9234 69.7623 62.7174 70.275 62.3632C70.3002 62.3467 70.3254 62.3303 70.3506 62.3055C70.5859 62.1325 70.7961 61.9348 70.9726 61.7042C71.3844 61.177 71.6365 60.518 71.6365 59.8013C71.6365 58.0796 70.2077 56.6792 68.4511 56.6792C66.6945 56.6792 65.2656 58.0796 65.2656 59.8013Z" fill="white"/>
<path d="M69.3185 61.8027L69.0243 61.5473C68.9991 61.5555 68.9739 61.5555 68.9487 61.5638C68.8982 61.5308 68.8394 61.4896 68.7806 61.4567C68.7974 61.3414 68.8142 61.2343 68.831 61.1354C68.873 60.7977 68.8814 60.6 68.8814 60.567C69.0327 60.5588 69.142 60.5423 69.142 60.5423C69.4362 60.4764 69.453 59.4879 69.3857 58.9771C69.4446 58.9771 69.495 58.9689 69.5454 58.9442C69.764 58.8453 69.7808 58.5158 69.7808 58.5158C69.7808 58.5158 69.7135 58.6312 69.6211 58.6723C69.6211 58.6723 69.9909 58.1698 69.5622 57.8321C69.1336 57.4861 68.6965 57.7168 68.4444 57.725C67.8981 57.758 67.5366 57.7909 67.3601 58.1451C67.1836 58.4911 67.2509 59.4549 67.5955 59.8091C67.6039 59.8421 67.6039 59.875 67.6123 59.908C67.6291 60.0316 67.6795 60.1387 67.7468 60.221C67.6711 60.6329 67.4946 60.9459 67.3433 61.1519C67.2341 61.2343 67.1416 61.3331 67.0492 61.4649L67.0408 61.4732C66.8727 61.7038 66.7382 62.0086 66.6289 62.3546C66.6289 62.3546 66.6289 62.3546 66.6289 62.3628C66.8054 62.4864 67.0071 62.5935 67.2088 62.6759C67.2257 62.6841 67.2341 62.6841 67.2509 62.6923H67.2593C67.2845 62.7006 67.3013 62.7088 67.3265 62.7171C67.3769 62.7418 67.4358 62.7582 67.4862 62.7747C67.545 62.7912 67.6039 62.8077 67.6627 62.8241C67.6879 62.8324 67.7131 62.8406 67.7468 62.8406C67.772 62.8489 67.7972 62.8489 67.8224 62.8571H67.8308C67.8476 62.8571 67.8644 62.8653 67.8812 62.8653C67.9149 62.8736 67.9569 62.8818 67.9905 62.8818C67.9989 62.8818 68.0073 62.8818 68.0157 62.8818C68.0409 62.8818 68.0577 62.89 68.0746 62.89C68.1082 62.89 68.1334 62.8983 68.1586 62.8983C68.1922 62.8983 68.2258 62.9065 68.2595 62.9065C68.2931 62.9065 68.3267 62.9065 68.3519 62.9148C68.3855 62.9148 68.4192 62.9148 68.4528 62.9148C68.4864 62.9148 68.52 62.9148 68.562 62.9148H68.5704C68.5789 62.9148 68.5873 62.9148 68.5957 62.9148C68.6125 62.9148 68.6293 62.9148 68.6461 62.9148C68.6461 62.9148 68.6461 62.9148 68.6545 62.9148C68.6881 62.9148 68.7217 62.9148 68.7554 62.9065C69.184 62.8653 69.5958 62.7418 69.9573 62.5523C69.7639 62.2393 69.5286 62.0004 69.3185 61.8027Z" fill="#699DEE"/>
<path d="M96.541 77.949C96.541 78.6739 96.7932 79.333 97.205 79.8684C97.3395 80.0414 97.4992 80.2062 97.6757 80.3462C98.2304 80.8075 98.9616 81.0876 99.7517 81.0876C100.466 81.0876 101.13 80.8569 101.668 80.4615C101.903 80.2885 102.113 80.0826 102.29 79.8602C102.71 79.333 102.954 78.6657 102.954 77.9408C102.954 76.2026 101.517 74.7939 99.7433 74.7939C97.9699 74.7939 96.541 76.2108 96.541 77.949Z" fill="white"/>
<path d="M101.382 79.728C101.382 79.7197 101.373 79.7115 101.365 79.7032C101.348 79.6868 101.331 79.6703 101.314 79.6538C101.272 79.6209 101.222 79.5961 101.155 79.5714C101.155 79.5714 101.155 79.5714 101.146 79.5714C100.869 79.4561 100.499 79.4149 100.499 79.4149C100.398 79.3984 100.314 79.3902 100.272 79.382C100.163 79.2996 100.02 78.9618 99.9948 78.4428C99.9948 78.4428 100.112 78.171 100.272 78.2534C100.524 78.3852 100.995 77.8497 100.844 77.1413C100.827 77.0671 100.81 76.993 100.785 76.9353C100.835 76.9601 100.894 76.9765 100.953 76.9765C101.096 76.9765 101.314 76.6141 101.348 76.4987C101.382 76.3752 101.348 75.9798 101.146 75.8644C100.953 75.7491 100.65 75.8809 100.634 75.8891C100.734 75.7573 101.071 75.7821 101.129 75.7903C100.348 75.6338 100.18 76.128 100.171 76.1692C99.6754 75.7244 98.9105 76.4905 98.7256 76.6964C98.7088 76.7047 98.7004 76.7212 98.6836 76.7294C98.6416 76.7541 98.5911 76.7953 98.5407 76.853C98.4399 76.9683 98.4146 77.1166 98.4146 77.2649C98.4146 77.5202 98.5155 77.7509 98.5155 77.7509C98.5575 78.1792 98.6836 78.7065 98.8853 78.7229C98.8853 78.7229 98.9526 78.7229 99.0618 78.7147C99.0618 78.7229 99.0618 78.7229 99.0618 78.7312C99.0618 78.8053 99.0702 78.8877 99.0702 78.9618V79.0113C99.0702 79.2254 99.0534 79.4314 99.0114 79.4561C98.9946 79.4561 98.9778 79.4561 98.9694 79.4561C98.9526 79.4561 98.9105 79.4643 98.9105 79.4643C98.734 79.489 98.608 79.5055 98.5239 79.522C98.3474 79.5467 98.3054 79.5714 98.2634 79.6044C98.255 79.6126 98.2465 79.6209 98.2297 79.6373C98.1037 79.7362 97.8683 79.9504 97.6582 80.3705C98.2213 80.8318 98.9442 81.1119 99.7342 81.1119C100.449 81.1119 101.113 80.8812 101.651 80.4858C101.575 80.1563 101.474 79.9009 101.382 79.728Z" fill="#FDCD51"/>
<path d="M96.541 14.7735C96.541 15.4984 96.7932 16.1574 97.205 16.6929C97.3395 16.8658 97.4992 17.0306 97.6757 17.1706C98.2304 17.632 98.9616 17.912 99.7517 17.912C100.466 17.912 101.13 17.6814 101.668 17.286C101.903 17.113 102.113 16.907 102.29 16.6846C102.71 16.1574 102.954 15.4901 102.954 14.7652C102.954 13.0271 101.517 11.6184 99.7433 11.6184C97.9699 11.6184 96.541 13.0353 96.541 14.7735Z" fill="white"/>
<path d="M101.382 16.5529C101.382 16.5446 101.373 16.5364 101.365 16.5282C101.348 16.5117 101.331 16.4952 101.314 16.4787C101.272 16.4458 101.222 16.4211 101.155 16.3964C101.155 16.3964 101.155 16.3964 101.146 16.3964C100.869 16.281 100.499 16.2398 100.499 16.2398C100.398 16.2234 100.314 16.2151 100.272 16.2069C100.247 16.1822 100.222 16.1492 100.188 16.0998C100.096 15.9433 100.012 15.655 99.9948 15.2678C99.9948 15.2678 100.112 14.9959 100.272 15.0783C100.524 15.2101 100.995 14.6747 100.844 13.9662C100.827 13.8921 100.81 13.8179 100.785 13.7603C100.835 13.785 100.894 13.8015 100.953 13.8015C101.096 13.8015 101.314 13.439 101.348 13.3237C101.382 13.2001 101.348 12.8047 101.146 12.6894C100.953 12.5741 100.65 12.7059 100.634 12.7141C100.734 12.5823 101.071 12.607 101.129 12.6152C100.348 12.4587 100.18 12.953 100.171 12.9942C99.6754 12.5493 98.9105 13.3154 98.7256 13.5214C98.7088 13.5296 98.7004 13.5461 98.6836 13.5543C98.6416 13.5791 98.5912 13.6202 98.5407 13.6779C98.4399 13.7932 98.4146 13.9415 98.4146 14.0898C98.4146 14.3452 98.5155 14.5758 98.5155 14.5758C98.5575 15.0042 98.6836 15.5314 98.8853 15.5479C98.8853 15.5479 98.9526 15.5479 99.0618 15.5396C99.0618 15.5479 99.0618 15.5479 99.0618 15.5561C99.0618 15.6302 99.0702 15.7126 99.0702 15.7868V15.8362C99.0702 16.0504 99.0534 16.2563 99.0114 16.281C98.9946 16.281 98.9778 16.281 98.9694 16.281C98.9526 16.281 98.9105 16.2893 98.9105 16.2893C98.734 16.314 98.608 16.3305 98.5239 16.3469C98.3474 16.3799 98.3054 16.3964 98.2634 16.4293C98.255 16.4375 98.2466 16.454 98.2297 16.4623C98.1037 16.5529 97.8683 16.7753 97.6582 17.1954C97.6918 17.2201 97.717 17.2448 97.7507 17.2696C97.7591 17.2696 97.7591 17.2778 97.7675 17.2778C97.7927 17.2943 97.8179 17.3107 97.8431 17.3272C97.8599 17.3437 97.8767 17.3519 97.8935 17.3684C97.9104 17.3766 97.9272 17.3931 97.944 17.4014C97.9692 17.4178 97.9944 17.4343 98.0196 17.4508C98.0364 17.459 98.0532 17.4755 98.07 17.4837C98.0953 17.5002 98.1121 17.5084 98.1373 17.5249C98.1625 17.5414 98.1877 17.5496 98.2129 17.5661C98.2129 17.5661 98.2129 17.5661 98.2213 17.5661L98.2297 17.5743C98.2466 17.5826 98.2718 17.5991 98.2886 17.6073C98.297 17.6073 98.3054 17.6155 98.3054 17.6155C98.3138 17.6238 98.3306 17.6238 98.339 17.632C98.3474 17.6403 98.3642 17.6403 98.3726 17.6485C98.3978 17.6567 98.4231 17.6732 98.4483 17.6814C98.4735 17.6897 98.4987 17.7062 98.5239 17.7144C98.5323 17.7226 98.5491 17.7226 98.5575 17.7309C98.5659 17.7309 98.5828 17.7391 98.5912 17.7473C98.6164 17.7556 98.6416 17.7638 98.6668 17.7721C98.692 17.7803 98.7172 17.7885 98.7424 17.7968C98.7677 17.805 98.7845 17.8132 98.8097 17.8132H98.8181C98.8349 17.8132 98.8433 17.8215 98.8601 17.8215C98.9358 17.8462 99.0114 17.8627 99.0955 17.8709C99.1291 17.8791 99.1627 17.8874 99.1963 17.8874C99.2047 17.8874 99.2131 17.8874 99.2215 17.8874H99.2299C99.2552 17.8874 99.272 17.8956 99.2972 17.8956C99.3056 17.8956 99.3056 17.8956 99.314 17.8956H99.3224C99.3476 17.8956 99.3644 17.9039 99.3812 17.9039H99.3896C99.398 17.9039 99.4064 17.9039 99.4064 17.9039C99.4401 17.9039 99.4821 17.9121 99.5157 17.9121H99.5241C99.5325 17.9121 99.5493 17.9121 99.5577 17.9121C99.5661 17.9121 99.5745 17.9121 99.5829 17.9121C99.6166 17.9121 99.6586 17.9121 99.6922 17.9121C100.407 17.9121 101.071 17.6814 101.609 17.286C101.575 16.9895 101.474 16.7259 101.382 16.5529Z" fill="#FDCD51"/>
<path d="M140.06 139.575L128.512 145.44H120.822C118.964 144.221 109.34 137.788 105.356 132.985C104.516 131.972 101.423 123.199 99.0527 116.089C99.3721 117.037 105.995 130.86 107.878 132.433C109.761 134.006 119.67 143.159 122.402 143.06C125.049 142.969 139.153 139.789 140.027 139.592C140.035 139.583 140.044 139.583 140.06 139.575Z" fill="#FDCD51"/>
<path d="M163.301 145.44H121.654C123.739 144.633 131.732 141.643 140.019 139.592C140.036 139.592 140.044 139.583 140.061 139.583C147.172 137.821 154.501 136.75 158.476 138.356L158.502 138.397L163.301 145.44Z" fill="#D2E3FC"/>
<path d="M96.2134 91.5327C96.9194 91.2773 97.9028 91.1126 98.3819 91.8951C99.1299 93.1143 96.3563 103.889 96.0117 105.24L96.2134 91.5327Z" fill="#FDCD51"/>
<path d="M96.4228 85.7416L96.1875 92.2576C96.1875 92.2576 97.5828 92.4801 98.3812 91.8952C99.1797 91.3103 98.7511 85.6592 96.4228 85.7416Z" fill="#FDCD51"/>
<path d="M68.4515 123.471C64.4508 124.278 55.8273 121.197 55.8273 121.197L57.2226 108.025L47.4728 118.964C42.5139 117.152 34.7562 112.432 30.1503 109.499C41.9592 108.239 50.776 96.8132 50.776 96.8132C58.9624 101.163 68.2078 103.7 68.2078 103.7C68.1994 111.518 68.4515 123.471 68.4515 123.471Z" fill="#CBE1FD"/>
<path d="M40.9923 111.509C41.0007 110.628 41.7319 109.927 42.6312 109.936C43.5305 109.944 44.245 110.661 44.2365 111.542C44.2281 112.423 43.4969 113.124 42.5976 113.115C41.6983 113.099 40.9839 112.382 40.9923 111.509Z" fill="#FFDB7D"/>
</g>
<defs>
<clipPath id="clip0_0_651">
<rect width="163.147" height="145.258" fill="white" transform="translate(0.578125 0.742188)"/>
</clipPath>
</defs>
</svg>
