<svg width="23" height="27" viewBox="0 0 23 27" fill="none" xmlns="http://www.w3.org/2000/svg">
<path d="M9.03887 0.199752C12.5372 -0.892744 15.7117 2.69887 14.1855 6.04258C13.8474 6.7835 12.8063 6.33902 13.1478 5.54643C13.8142 4.00043 13.1908 2.22491 11.6708 1.47843C10.5627 0.934785 9.19974 1.09531 8.25772 1.92604C7.22555 2.83582 6.90692 4.27953 7.45508 5.54053C7.50223 5.64894 7.52858 5.73238 7.53413 5.79086C7.57435 6.21593 7.15066 6.53387 6.75922 6.37611C6.59765 6.31093 6.477 6.18253 6.39725 5.99091C6.14484 5.38532 6.02511 4.77545 6.03806 4.16131C6.07654 2.3362 7.31119 0.739239 9.03887 0.199752Z" fill="#598BE0"/>
<path d="M19.4843 2.52579C19.6916 2.75185 19.9933 3.06008 20.2363 3.33745C20.5362 3.67966 20.4121 3.96812 20.1368 4.26422C19.7094 4.72419 19.2809 5.18313 18.8512 5.64102C18.6943 5.80814 18.5733 5.91007 18.4882 5.94682C18.2458 6.05153 17.9737 5.96936 17.8131 5.76029C17.439 5.27316 18.0181 4.85259 18.302 4.535C18.3126 4.52321 18.31 4.51651 18.294 4.51489C17.6184 4.45295 16.9443 4.3932 16.2717 4.33564C16.1465 4.32524 16.0144 4.31623 15.9048 4.25971C15.5616 4.08323 15.4701 3.66128 15.7204 3.37386C15.8292 3.24904 15.9847 3.17785 16.1867 3.16028C16.8931 3.09949 17.5968 3.03697 18.2979 2.97271C18.3003 2.97248 18.3027 2.97156 18.3046 2.97006C18.3066 2.96856 18.3081 2.96653 18.309 2.96422C18.3098 2.9619 18.31 2.95939 18.3095 2.95697C18.309 2.95455 18.3079 2.95231 18.3062 2.95052C18.0493 2.6832 17.6117 2.33996 17.7109 1.93499C17.819 1.49328 18.3655 1.35217 18.6837 1.67149C18.8264 1.81457 19.0932 2.09934 19.4843 2.52579Z" fill="#598BE0"/>
<path d="M2.48254 2.55467C2.33831 2.70479 2.23915 2.81401 2.11329 2.94021C2.11056 2.94292 2.10866 2.94635 2.10782 2.9501C2.10698 2.95384 2.10723 2.95776 2.10855 2.96137C2.10986 2.96498 2.11218 2.96814 2.11523 2.97047C2.11829 2.97281 2.12194 2.97422 2.12577 2.97454C2.7494 3.02793 3.37452 3.0834 4.00115 3.14096C4.29135 3.16766 4.43697 3.1576 4.61137 3.29455C4.93277 3.54661 4.89082 4.05767 4.5337 4.2494C4.46274 4.28731 4.34463 4.31412 4.17936 4.32984C3.49818 4.39502 2.81481 4.45581 2.12924 4.51221C2.10173 4.51429 2.09734 4.5255 2.11606 4.54584C2.29878 4.74208 2.59765 5.0094 2.68017 5.22991C2.90311 5.8266 2.1438 6.24786 1.69342 5.78223C1.44748 5.52797 0.970406 5.01737 0.262185 4.25044C-0.0758608 3.88466 -0.0956233 3.61665 0.253171 3.24324C0.741575 2.72063 1.23229 2.19998 1.72532 1.68129C2.2603 1.11892 3.11009 1.90146 2.48254 2.55467Z" fill="#598BE0"/>
<path d="M9.59986 2.76707C10.5284 2.30005 11.6774 2.87594 11.9308 3.86338C11.9643 3.99351 11.9812 4.19576 11.9814 4.47013C11.9824 6.77485 11.9825 9.07969 11.9818 11.3846C11.9818 11.4904 12.0102 11.5587 12.1291 11.5476C12.1525 11.5455 12.1743 11.5346 12.1902 11.5173C12.2061 11.4999 12.215 11.4772 12.2151 11.4536C12.2169 11.273 12.2099 11.0674 12.2467 10.8975C12.6298 9.12234 15.0571 9.07276 15.5162 10.824C15.5606 10.9932 15.5606 11.1867 15.5658 11.3673C15.572 11.5802 15.822 11.6128 15.8986 11.4228C16.5459 9.8175 18.8797 10.0723 19.1158 11.7841C19.1307 11.8919 19.1314 12.0157 19.1903 12.1041C19.3065 12.2792 19.5225 12.275 19.6539 12.1148C19.6927 12.0677 19.7314 12.0213 19.77 11.9758C20.6628 10.9232 22.3482 11.3358 22.6661 12.6692C22.6976 12.8017 22.7133 12.9912 22.7133 13.2378C22.7128 15.0407 22.7105 16.8435 22.7063 18.6462C22.7011 20.9501 21.7258 23.1691 19.95 24.6465C18.6342 25.7407 17.0015 26.4227 15.2853 26.5055C12.4419 26.6428 9.7597 25.2997 8.22029 22.8959C6.57617 20.3285 4.92997 17.7649 3.25118 15.2197C3.03761 14.8958 2.91476 14.7004 2.88263 14.6334C2.10946 13.0173 4.05834 11.4724 5.44242 12.6082C5.53996 12.6882 5.65206 12.8129 5.77873 12.9823C6.46499 13.899 7.15391 14.8141 7.84549 15.7276C7.94153 15.8545 8.04 15.9939 8.21023 16.0157C8.51084 16.0538 8.63635 15.8049 8.63635 15.5497C8.63658 11.8232 8.6382 8.09676 8.6412 4.37028C8.64166 3.62276 8.96122 3.08836 9.59986 2.76707Z" fill="#598BE0"/>
</svg>
